<mxfile host="drawio-plugin" agent="Mozilla/5.0 (Macintosh; Intel Mac OS X 10_15_7) AppleWebKit/537.36 (KHTML, like Gecko) Chrome/122.0.0.0 Safari/537.36" modified="2025-03-09T16:35:50.026Z" version="22.1.22" etag="VbdJ8l6kJvVba6eWKpjX" type="embed" pages="2">
  <diagram name="MVP : Mind Map" id="ad52d381-51e7-2e0d-a935-2d0ddd2fd229">
    <mxGraphModel dx="430" dy="1985" grid="1" gridSize="10" guides="1" tooltips="1" connect="1" arrows="1" fold="1" page="1" pageScale="1" pageWidth="1100" pageHeight="850" background="none" math="0" shadow="0">
      <root>
        <mxCell id="0" />
        <mxCell id="1" parent="0" />
        <mxCell id="IkNynAGvLjHpo-lVen7Y-40" style="edgeStyle=orthogonalEdgeStyle;rounded=0;orthogonalLoop=1;jettySize=auto;html=1;entryX=1;entryY=0.25;entryDx=0;entryDy=0;" parent="1" source="IkNynAGvLjHpo-lVen7Y-2" target="IkNynAGvLjHpo-lVen7Y-27" edge="1">
          <mxGeometry relative="1" as="geometry" />
        </mxCell>
        <mxCell id="IkNynAGvLjHpo-lVen7Y-42" style="edgeStyle=orthogonalEdgeStyle;rounded=0;orthogonalLoop=1;jettySize=auto;html=1;" parent="1" source="IkNynAGvLjHpo-lVen7Y-2" target="IkNynAGvLjHpo-lVen7Y-41" edge="1">
          <mxGeometry relative="1" as="geometry" />
        </mxCell>
        <mxCell id="IkNynAGvLjHpo-lVen7Y-56" style="edgeStyle=orthogonalEdgeStyle;rounded=0;orthogonalLoop=1;jettySize=auto;html=1;" parent="1" source="IkNynAGvLjHpo-lVen7Y-2" target="IkNynAGvLjHpo-lVen7Y-55" edge="1">
          <mxGeometry relative="1" as="geometry" />
        </mxCell>
        <mxCell id="IkNynAGvLjHpo-lVen7Y-2" value="Sport" style="ellipse;whiteSpace=wrap;html=1;rounded=1;shadow=1;comic=0;labelBackgroundColor=none;strokeWidth=2;fontFamily=Verdana;fontSize=12;align=center;fillColor=#6d8764;strokeColor=#3A5431;fontColor=#ffffff;" parent="1" vertex="1">
          <mxGeometry x="1460" y="125" width="100" height="70" as="geometry" />
        </mxCell>
        <mxCell id="IkNynAGvLjHpo-lVen7Y-50" style="edgeStyle=orthogonalEdgeStyle;rounded=0;orthogonalLoop=1;jettySize=auto;html=1;" parent="1" source="IkNynAGvLjHpo-lVen7Y-3" target="IkNynAGvLjHpo-lVen7Y-49" edge="1">
          <mxGeometry relative="1" as="geometry" />
        </mxCell>
        <mxCell id="IkNynAGvLjHpo-lVen7Y-52" style="edgeStyle=orthogonalEdgeStyle;rounded=0;orthogonalLoop=1;jettySize=auto;html=1;" parent="1" source="IkNynAGvLjHpo-lVen7Y-3" target="IkNynAGvLjHpo-lVen7Y-51" edge="1">
          <mxGeometry relative="1" as="geometry" />
        </mxCell>
        <mxCell id="IkNynAGvLjHpo-lVen7Y-57" style="edgeStyle=orthogonalEdgeStyle;rounded=0;orthogonalLoop=1;jettySize=auto;html=1;" parent="1" source="IkNynAGvLjHpo-lVen7Y-3" target="IkNynAGvLjHpo-lVen7Y-55" edge="1">
          <mxGeometry relative="1" as="geometry" />
        </mxCell>
        <mxCell id="tiPBGG0AlIu76j9yVoQb-11" style="edgeStyle=orthogonalEdgeStyle;rounded=0;orthogonalLoop=1;jettySize=auto;html=1;" parent="1" source="IkNynAGvLjHpo-lVen7Y-3" target="tiPBGG0AlIu76j9yVoQb-10" edge="1">
          <mxGeometry relative="1" as="geometry" />
        </mxCell>
        <mxCell id="IkNynAGvLjHpo-lVen7Y-3" value="&lt;span&gt;Nutrition&lt;/span&gt;" style="ellipse;whiteSpace=wrap;html=1;rounded=1;shadow=1;comic=0;labelBackgroundColor=none;strokeWidth=2;fontFamily=Verdana;fontSize=12;align=center;fillColor=#6d8764;strokeColor=#3A5431;fontColor=#ffffff;" parent="1" vertex="1">
          <mxGeometry x="1830" y="120" width="90" height="80" as="geometry" />
        </mxCell>
        <mxCell id="IkNynAGvLjHpo-lVen7Y-12" value="" style="edgeStyle=none;rounded=1;html=1;labelBackgroundColor=none;startArrow=none;startFill=0;startSize=5;endArrow=classicThin;endFill=1;endSize=5;jettySize=auto;orthogonalLoop=1;strokeColor=#B3B3B3;strokeWidth=1;fontFamily=Verdana;fontSize=12" parent="1" source="IkNynAGvLjHpo-lVen7Y-23" target="IkNynAGvLjHpo-lVen7Y-3" edge="1">
          <mxGeometry x="-0.1749" y="-8" relative="1" as="geometry">
            <mxPoint x="1805" y="281" as="sourcePoint" />
            <Array as="points">
              <mxPoint x="1830" y="320" />
            </Array>
            <mxPoint as="offset" />
          </mxGeometry>
        </mxCell>
        <mxCell id="IkNynAGvLjHpo-lVen7Y-23" value="Ultra" style="ellipse;whiteSpace=wrap;html=1;rounded=1;shadow=1;comic=0;labelBackgroundColor=none;strokeWidth=2;fontFamily=Verdana;fontSize=12;align=center;fillColor=#6d8764;strokeColor=#3A5431;fontColor=#ffffff;" parent="1" vertex="1">
          <mxGeometry x="1640" y="350" width="120" height="120" as="geometry" />
        </mxCell>
        <mxCell id="IkNynAGvLjHpo-lVen7Y-45" style="edgeStyle=orthogonalEdgeStyle;rounded=0;orthogonalLoop=1;jettySize=auto;html=1;entryX=1;entryY=0.5;entryDx=0;entryDy=0;" parent="1" source="IkNynAGvLjHpo-lVen7Y-27" target="IkNynAGvLjHpo-lVen7Y-44" edge="1">
          <mxGeometry relative="1" as="geometry" />
        </mxCell>
        <mxCell id="IkNynAGvLjHpo-lVen7Y-27" value="&lt;span&gt;Plan de sÃ©ance&lt;/span&gt;" style="whiteSpace=wrap;html=1;rounded=1;shadow=1;comic=0;labelBackgroundColor=none;strokeWidth=2;fontFamily=Verdana;fontSize=12;align=center;arcSize=50;fillColor=#6d8764;strokeColor=#3A5431;fontColor=#ffffff;" parent="1" vertex="1">
          <mxGeometry x="1300" y="80" width="100" height="20" as="geometry" />
        </mxCell>
        <mxCell id="tiPBGG0AlIu76j9yVoQb-9" style="edgeStyle=orthogonalEdgeStyle;rounded=0;orthogonalLoop=1;jettySize=auto;html=1;" parent="1" source="IkNynAGvLjHpo-lVen7Y-29" target="tiPBGG0AlIu76j9yVoQb-7" edge="1">
          <mxGeometry relative="1" as="geometry" />
        </mxCell>
        <mxCell id="IkNynAGvLjHpo-lVen7Y-29" value="Visualization" style="ellipse;whiteSpace=wrap;html=1;rounded=1;shadow=1;comic=0;labelBackgroundColor=none;strokeWidth=2;fontFamily=Verdana;fontSize=12;align=center;" parent="1" vertex="1">
          <mxGeometry x="1630" y="30" width="100" height="70" as="geometry" />
        </mxCell>
        <mxCell id="IkNynAGvLjHpo-lVen7Y-41" value="&lt;span&gt;Performance&lt;/span&gt;" style="whiteSpace=wrap;html=1;rounded=1;shadow=1;comic=0;labelBackgroundColor=none;strokeWidth=2;fontFamily=Verdana;fontSize=12;align=center;arcSize=50;fillColor=#6d8764;strokeColor=#3A5431;fontColor=#ffffff;" parent="1" vertex="1">
          <mxGeometry x="1300" y="125" width="100" height="20" as="geometry" />
        </mxCell>
        <mxCell id="IkNynAGvLjHpo-lVen7Y-43" style="edgeStyle=orthogonalEdgeStyle;rounded=0;orthogonalLoop=1;jettySize=auto;html=1;exitX=0.5;exitY=1;exitDx=0;exitDy=0;" parent="1" source="IkNynAGvLjHpo-lVen7Y-27" target="IkNynAGvLjHpo-lVen7Y-27" edge="1">
          <mxGeometry relative="1" as="geometry" />
        </mxCell>
        <mxCell id="IkNynAGvLjHpo-lVen7Y-44" value="&lt;span&gt;Liste Exercices&lt;/span&gt;" style="whiteSpace=wrap;html=1;rounded=1;shadow=1;comic=0;labelBackgroundColor=none;strokeWidth=2;fontFamily=Verdana;fontSize=12;align=center;arcSize=50;fillColor=#6d8764;strokeColor=#3A5431;fontColor=#ffffff;" parent="1" vertex="1">
          <mxGeometry x="1160" y="80" width="100" height="20" as="geometry" />
        </mxCell>
        <mxCell id="tiPBGG0AlIu76j9yVoQb-58" style="edgeStyle=orthogonalEdgeStyle;rounded=0;orthogonalLoop=1;jettySize=auto;html=1;" parent="1" source="IkNynAGvLjHpo-lVen7Y-46" target="tiPBGG0AlIu76j9yVoQb-57" edge="1">
          <mxGeometry relative="1" as="geometry" />
        </mxCell>
        <mxCell id="IkNynAGvLjHpo-lVen7Y-46" value="Sociale" style="ellipse;whiteSpace=wrap;html=1;rounded=1;shadow=1;comic=0;labelBackgroundColor=none;strokeWidth=2;fontFamily=Verdana;fontSize=12;align=center;" parent="1" vertex="1">
          <mxGeometry x="1550" y="480" width="100" height="70" as="geometry" />
        </mxCell>
        <mxCell id="IkNynAGvLjHpo-lVen7Y-47" value="Ranked" style="ellipse;whiteSpace=wrap;html=1;rounded=1;shadow=1;comic=0;labelBackgroundColor=none;strokeWidth=2;fontFamily=Verdana;fontSize=12;align=center;" parent="1" vertex="1">
          <mxGeometry x="1430" y="380" width="100" height="70" as="geometry" />
        </mxCell>
        <mxCell id="IkNynAGvLjHpo-lVen7Y-49" value="&lt;span&gt;&amp;nbsp;Aliments&lt;/span&gt;" style="whiteSpace=wrap;html=1;rounded=1;shadow=1;comic=0;labelBackgroundColor=none;strokeWidth=2;fontFamily=Verdana;fontSize=12;align=center;arcSize=50;fillColor=#6d8764;strokeColor=#3A5431;fontColor=#ffffff;" parent="1" vertex="1">
          <mxGeometry x="1990" y="85" width="120" height="40" as="geometry" />
        </mxCell>
        <mxCell id="IkNynAGvLjHpo-lVen7Y-51" value="&lt;span&gt;Follow up caloriques&lt;/span&gt;" style="whiteSpace=wrap;html=1;rounded=1;shadow=1;comic=0;labelBackgroundColor=none;strokeWidth=2;fontFamily=Verdana;fontSize=12;align=center;arcSize=50;fillColor=#6d8764;strokeColor=#3A5431;fontColor=#ffffff;" parent="1" vertex="1">
          <mxGeometry x="1990" y="140" width="120" height="40" as="geometry" />
        </mxCell>
        <mxCell id="IkNynAGvLjHpo-lVen7Y-58" style="edgeStyle=orthogonalEdgeStyle;rounded=0;orthogonalLoop=1;jettySize=auto;html=1;" parent="1" source="IkNynAGvLjHpo-lVen7Y-55" target="IkNynAGvLjHpo-lVen7Y-29" edge="1">
          <mxGeometry relative="1" as="geometry" />
        </mxCell>
        <mxCell id="IkNynAGvLjHpo-lVen7Y-62" style="edgeStyle=orthogonalEdgeStyle;rounded=0;orthogonalLoop=1;jettySize=auto;html=1;" parent="1" source="IkNynAGvLjHpo-lVen7Y-55" target="IkNynAGvLjHpo-lVen7Y-60" edge="1">
          <mxGeometry relative="1" as="geometry" />
        </mxCell>
        <mxCell id="IkNynAGvLjHpo-lVen7Y-64" style="edgeStyle=orthogonalEdgeStyle;rounded=0;orthogonalLoop=1;jettySize=auto;html=1;" parent="1" source="IkNynAGvLjHpo-lVen7Y-55" target="IkNynAGvLjHpo-lVen7Y-63" edge="1">
          <mxGeometry relative="1" as="geometry">
            <Array as="points">
              <mxPoint x="1680" y="230" />
              <mxPoint x="1740" y="230" />
            </Array>
          </mxGeometry>
        </mxCell>
        <mxCell id="er4v6Koj0GB3_3TuaJ3j-2" style="edgeStyle=orthogonalEdgeStyle;rounded=0;orthogonalLoop=1;jettySize=auto;html=1;" parent="1" source="IkNynAGvLjHpo-lVen7Y-55" target="er4v6Koj0GB3_3TuaJ3j-1" edge="1">
          <mxGeometry relative="1" as="geometry" />
        </mxCell>
        <mxCell id="IkNynAGvLjHpo-lVen7Y-55" value="Archives / Profile" style="ellipse;whiteSpace=wrap;html=1;rounded=1;shadow=1;comic=0;labelBackgroundColor=none;strokeWidth=2;fontFamily=Verdana;fontSize=12;align=center;fillColor=#6d8764;strokeColor=#3A5431;fontColor=#ffffff;" parent="1" vertex="1">
          <mxGeometry x="1630" y="140" width="100" height="70" as="geometry" />
        </mxCell>
        <mxCell id="IkNynAGvLjHpo-lVen7Y-60" value="Sportives" style="whiteSpace=wrap;html=1;rounded=1;shadow=1;comic=0;labelBackgroundColor=none;strokeWidth=2;fontFamily=Verdana;fontSize=12;align=center;arcSize=50;fillColor=#6d8764;strokeColor=#3A5431;fontColor=#ffffff;" parent="1" vertex="1">
          <mxGeometry x="1560" y="250" width="100" height="20" as="geometry" />
        </mxCell>
        <mxCell id="IkNynAGvLjHpo-lVen7Y-63" value="Nutritionelles" style="whiteSpace=wrap;html=1;rounded=1;shadow=1;comic=0;labelBackgroundColor=none;strokeWidth=2;fontFamily=Verdana;fontSize=12;align=center;arcSize=50;fillColor=#6d8764;strokeColor=#3A5431;fontColor=#ffffff;" parent="1" vertex="1">
          <mxGeometry x="1690" y="250" width="100" height="20" as="geometry" />
        </mxCell>
        <mxCell id="tiPBGG0AlIu76j9yVoQb-1" value="StoÃ¯cisme" style="ellipse;whiteSpace=wrap;html=1;rounded=1;shadow=1;comic=0;labelBackgroundColor=none;strokeWidth=2;fontFamily=Verdana;fontSize=12;align=center;" parent="1" vertex="1">
          <mxGeometry x="1870" y="370" width="100" height="70" as="geometry" />
        </mxCell>
        <mxCell id="tiPBGG0AlIu76j9yVoQb-2" value="Astuces / Posts avec une approche scientifique" style="ellipse;whiteSpace=wrap;html=1;rounded=1;shadow=1;comic=0;labelBackgroundColor=none;strokeWidth=2;fontFamily=Verdana;fontSize=12;align=center;" parent="1" vertex="1">
          <mxGeometry x="1780" y="500" width="150" height="100" as="geometry" />
        </mxCell>
        <mxCell id="tiPBGG0AlIu76j9yVoQb-5" value="&lt;span&gt;Milestone stylÃ©&amp;nbsp;&lt;/span&gt;&lt;div&gt;(courir sur la distance Paris Marseille, Squat le poids de jsp quoi...&lt;/div&gt;" style="whiteSpace=wrap;html=1;rounded=1;shadow=1;comic=0;labelBackgroundColor=none;strokeWidth=2;fontFamily=Verdana;fontSize=12;align=center;arcSize=50;" parent="1" vertex="1">
          <mxGeometry x="1470" y="-80" width="190" height="80" as="geometry" />
        </mxCell>
        <mxCell id="tiPBGG0AlIu76j9yVoQb-6" style="edgeStyle=orthogonalEdgeStyle;rounded=0;orthogonalLoop=1;jettySize=auto;html=1;entryX=1.002;entryY=0.43;entryDx=0;entryDy=0;entryPerimeter=0;" parent="1" source="IkNynAGvLjHpo-lVen7Y-29" target="tiPBGG0AlIu76j9yVoQb-5" edge="1">
          <mxGeometry relative="1" as="geometry" />
        </mxCell>
        <mxCell id="tiPBGG0AlIu76j9yVoQb-7" value="PrÃ©vision" style="whiteSpace=wrap;html=1;rounded=1;shadow=1;comic=0;labelBackgroundColor=none;strokeWidth=2;fontFamily=Verdana;fontSize=12;align=center;arcSize=50;" parent="1" vertex="1">
          <mxGeometry x="1720" y="-70" width="120" height="40" as="geometry" />
        </mxCell>
        <mxCell id="tiPBGG0AlIu76j9yVoQb-10" value="&lt;span&gt;Recettes&lt;/span&gt;" style="whiteSpace=wrap;html=1;rounded=1;shadow=1;comic=0;labelBackgroundColor=none;strokeWidth=2;fontFamily=Verdana;fontSize=12;align=center;arcSize=50;" parent="1" vertex="1">
          <mxGeometry x="1990" y="200" width="120" height="40" as="geometry" />
        </mxCell>
        <mxCell id="tiPBGG0AlIu76j9yVoQb-13" value="&lt;span&gt;ComplÃ©ments Alimentaire&lt;/span&gt;" style="whiteSpace=wrap;html=1;rounded=1;shadow=1;comic=0;labelBackgroundColor=none;strokeWidth=2;fontFamily=Verdana;fontSize=12;align=center;arcSize=50;" parent="1" vertex="1">
          <mxGeometry x="1990" y="250" width="120" height="40" as="geometry" />
        </mxCell>
        <mxCell id="tiPBGG0AlIu76j9yVoQb-14" value="Bilan Hebdo / Mensuel" style="whiteSpace=wrap;html=1;rounded=1;shadow=1;comic=0;labelBackgroundColor=none;strokeWidth=2;fontFamily=Verdana;fontSize=12;align=center;arcSize=50;" parent="1" vertex="1">
          <mxGeometry x="1810" width="120" height="40" as="geometry" />
        </mxCell>
        <mxCell id="tiPBGG0AlIu76j9yVoQb-19" style="edgeStyle=orthogonalEdgeStyle;rounded=0;orthogonalLoop=1;jettySize=auto;html=1;" parent="1" source="tiPBGG0AlIu76j9yVoQb-18" target="IkNynAGvLjHpo-lVen7Y-46" edge="1">
          <mxGeometry relative="1" as="geometry" />
        </mxCell>
        <mxCell id="tiPBGG0AlIu76j9yVoQb-18" value="&lt;span&gt;Challenges Globaux / Perso&lt;/span&gt;" style="whiteSpace=wrap;html=1;rounded=1;shadow=1;comic=0;labelBackgroundColor=none;strokeWidth=2;fontFamily=Verdana;fontSize=12;align=center;arcSize=50;" parent="1" vertex="1">
          <mxGeometry x="1390" y="495" width="120" height="40" as="geometry" />
        </mxCell>
        <mxCell id="tiPBGG0AlIu76j9yVoQb-21" style="edgeStyle=orthogonalEdgeStyle;rounded=0;orthogonalLoop=1;jettySize=auto;html=1;" parent="1" source="tiPBGG0AlIu76j9yVoQb-20" target="IkNynAGvLjHpo-lVen7Y-47" edge="1">
          <mxGeometry relative="1" as="geometry" />
        </mxCell>
        <mxCell id="tiPBGG0AlIu76j9yVoQb-20" value="&lt;span&gt;Muscle Map avec des couleurs&lt;/span&gt;" style="whiteSpace=wrap;html=1;rounded=1;shadow=1;comic=0;labelBackgroundColor=none;strokeWidth=2;fontFamily=Verdana;fontSize=12;align=center;arcSize=50;" parent="1" vertex="1">
          <mxGeometry x="1230" y="365" width="120" height="40" as="geometry" />
        </mxCell>
        <mxCell id="tiPBGG0AlIu76j9yVoQb-23" value="" style="edgeStyle=none;rounded=1;html=1;labelBackgroundColor=none;startArrow=none;startFill=0;startSize=5;endArrow=classicThin;endFill=1;endSize=5;jettySize=auto;orthogonalLoop=1;strokeColor=#B3B3B3;strokeWidth=1;fontFamily=Verdana;fontSize=12;entryX=0.636;entryY=0.943;entryDx=0;entryDy=0;entryPerimeter=0;exitX=0.073;exitY=0.256;exitDx=0;exitDy=0;exitPerimeter=0;" parent="1" source="IkNynAGvLjHpo-lVen7Y-23" target="IkNynAGvLjHpo-lVen7Y-2" edge="1">
          <mxGeometry relative="1" as="geometry">
            <mxPoint x="1658" y="391" as="sourcePoint" />
            <mxPoint x="1556" y="198" as="targetPoint" />
            <Array as="points">
              <mxPoint x="1550" y="330" />
            </Array>
          </mxGeometry>
        </mxCell>
        <mxCell id="tiPBGG0AlIu76j9yVoQb-24" value="" style="endArrow=none;html=1;rounded=0;" parent="1" source="IkNynAGvLjHpo-lVen7Y-47" target="IkNynAGvLjHpo-lVen7Y-46" edge="1">
          <mxGeometry width="50" height="50" relative="1" as="geometry">
            <mxPoint x="1600" y="360" as="sourcePoint" />
            <mxPoint x="1650" y="310" as="targetPoint" />
          </mxGeometry>
        </mxCell>
        <mxCell id="tiPBGG0AlIu76j9yVoQb-27" style="edgeStyle=orthogonalEdgeStyle;rounded=0;orthogonalLoop=1;jettySize=auto;html=1;" parent="1" source="tiPBGG0AlIu76j9yVoQb-26" target="IkNynAGvLjHpo-lVen7Y-47" edge="1">
          <mxGeometry relative="1" as="geometry" />
        </mxCell>
        <mxCell id="tiPBGG0AlIu76j9yVoQb-26" value="Rangs (Silver / Gold / Plat...)" style="whiteSpace=wrap;html=1;rounded=1;shadow=1;comic=0;labelBackgroundColor=none;strokeWidth=2;fontFamily=Verdana;fontSize=12;align=center;arcSize=50;" parent="1" vertex="1">
          <mxGeometry x="1230" y="420" width="120" height="40" as="geometry" />
        </mxCell>
        <mxCell id="tiPBGG0AlIu76j9yVoQb-31" style="edgeStyle=orthogonalEdgeStyle;rounded=0;orthogonalLoop=1;jettySize=auto;html=1;entryX=0.5;entryY=1;entryDx=0;entryDy=0;" parent="1" source="tiPBGG0AlIu76j9yVoQb-30" target="IkNynAGvLjHpo-lVen7Y-46" edge="1">
          <mxGeometry relative="1" as="geometry" />
        </mxCell>
        <mxCell id="tiPBGG0AlIu76j9yVoQb-30" value="&lt;span&gt;Recap entrainement (#Story)&lt;/span&gt;" style="whiteSpace=wrap;html=1;rounded=1;shadow=1;comic=0;labelBackgroundColor=none;strokeWidth=2;fontFamily=Verdana;fontSize=12;align=center;arcSize=50;" parent="1" vertex="1">
          <mxGeometry x="1650" y="595" width="130" height="50" as="geometry" />
        </mxCell>
        <mxCell id="tiPBGG0AlIu76j9yVoQb-33" value="" style="endArrow=none;html=1;rounded=0;" parent="1" source="IkNynAGvLjHpo-lVen7Y-47" target="IkNynAGvLjHpo-lVen7Y-23" edge="1">
          <mxGeometry width="50" height="50" relative="1" as="geometry">
            <mxPoint x="1640" y="400" as="sourcePoint" />
            <mxPoint x="1690" y="350" as="targetPoint" />
          </mxGeometry>
        </mxCell>
        <mxCell id="tiPBGG0AlIu76j9yVoQb-34" value="" style="endArrow=none;html=1;rounded=0;" parent="1" source="IkNynAGvLjHpo-lVen7Y-23" target="IkNynAGvLjHpo-lVen7Y-46" edge="1">
          <mxGeometry width="50" height="50" relative="1" as="geometry">
            <mxPoint x="1640" y="400" as="sourcePoint" />
            <mxPoint x="1690" y="350" as="targetPoint" />
          </mxGeometry>
        </mxCell>
        <mxCell id="tiPBGG0AlIu76j9yVoQb-36" value="" style="endArrow=none;html=1;rounded=0;" parent="1" source="IkNynAGvLjHpo-lVen7Y-23" target="tiPBGG0AlIu76j9yVoQb-2" edge="1">
          <mxGeometry width="50" height="50" relative="1" as="geometry">
            <mxPoint x="1640" y="400" as="sourcePoint" />
            <mxPoint x="1690" y="350" as="targetPoint" />
          </mxGeometry>
        </mxCell>
        <mxCell id="tiPBGG0AlIu76j9yVoQb-37" value="" style="endArrow=none;html=1;rounded=0;" parent="1" source="IkNynAGvLjHpo-lVen7Y-23" target="tiPBGG0AlIu76j9yVoQb-1" edge="1">
          <mxGeometry width="50" height="50" relative="1" as="geometry">
            <mxPoint x="1640" y="400" as="sourcePoint" />
            <mxPoint x="1690" y="350" as="targetPoint" />
          </mxGeometry>
        </mxCell>
        <mxCell id="tiPBGG0AlIu76j9yVoQb-39" value="4 oeufs par jour&lt;br&gt;10k pas&lt;div&gt;jeÃ»ne....&lt;/div&gt;" style="rounded=1;whiteSpace=wrap;html=1;shadow=1;comic=0;labelBackgroundColor=none;strokeWidth=2;fontFamily=Verdana;fontSize=12;align=center;fillColor=#B5B5B5;fontColor=#333333;strokeColor=#666666;" parent="1" vertex="1">
          <mxGeometry x="1795" y="640" width="120" height="60" as="geometry" />
        </mxCell>
        <mxCell id="tiPBGG0AlIu76j9yVoQb-41" value="" style="endArrow=none;dashed=1;html=1;dashPattern=1 3;strokeWidth=2;rounded=0;" parent="1" source="tiPBGG0AlIu76j9yVoQb-39" target="tiPBGG0AlIu76j9yVoQb-2" edge="1">
          <mxGeometry width="50" height="50" relative="1" as="geometry">
            <mxPoint x="1720" y="600" as="sourcePoint" />
            <mxPoint x="1770" y="550" as="targetPoint" />
          </mxGeometry>
        </mxCell>
        <mxCell id="tiPBGG0AlIu76j9yVoQb-47" style="edgeStyle=orthogonalEdgeStyle;rounded=0;orthogonalLoop=1;jettySize=auto;html=1;" parent="1" source="tiPBGG0AlIu76j9yVoQb-43" target="tiPBGG0AlIu76j9yVoQb-46" edge="1">
          <mxGeometry relative="1" as="geometry" />
        </mxCell>
        <mxCell id="tiPBGG0AlIu76j9yVoQb-43" value="&lt;span&gt;Amis / followers&lt;/span&gt;" style="whiteSpace=wrap;html=1;rounded=1;shadow=1;comic=0;labelBackgroundColor=none;strokeWidth=2;fontFamily=Verdana;fontSize=12;align=center;arcSize=50;" parent="1" vertex="1">
          <mxGeometry x="1410" y="550" width="120" height="40" as="geometry" />
        </mxCell>
        <mxCell id="tiPBGG0AlIu76j9yVoQb-44" style="edgeStyle=orthogonalEdgeStyle;rounded=0;orthogonalLoop=1;jettySize=auto;html=1;entryX=0.182;entryY=0.857;entryDx=0;entryDy=0;entryPerimeter=0;" parent="1" source="tiPBGG0AlIu76j9yVoQb-43" target="IkNynAGvLjHpo-lVen7Y-46" edge="1">
          <mxGeometry relative="1" as="geometry" />
        </mxCell>
        <mxCell id="tiPBGG0AlIu76j9yVoQb-52" style="edgeStyle=orthogonalEdgeStyle;rounded=0;orthogonalLoop=1;jettySize=auto;html=1;" parent="1" source="tiPBGG0AlIu76j9yVoQb-46" target="tiPBGG0AlIu76j9yVoQb-50" edge="1">
          <mxGeometry relative="1" as="geometry">
            <Array as="points">
              <mxPoint x="1290" y="680" />
              <mxPoint x="1430" y="680" />
            </Array>
          </mxGeometry>
        </mxCell>
        <mxCell id="tiPBGG0AlIu76j9yVoQb-46" value="Notifs au followers #BeReal + Photo" style="whiteSpace=wrap;html=1;rounded=1;shadow=1;comic=0;labelBackgroundColor=none;strokeWidth=2;fontFamily=Verdana;fontSize=12;align=center;arcSize=50;" parent="1" vertex="1">
          <mxGeometry x="1230" y="580" width="120" height="40" as="geometry" />
        </mxCell>
        <mxCell id="tiPBGG0AlIu76j9yVoQb-51" style="edgeStyle=orthogonalEdgeStyle;rounded=0;orthogonalLoop=1;jettySize=auto;html=1;" parent="1" source="tiPBGG0AlIu76j9yVoQb-48" target="tiPBGG0AlIu76j9yVoQb-50" edge="1">
          <mxGeometry relative="1" as="geometry" />
        </mxCell>
        <mxCell id="tiPBGG0AlIu76j9yVoQb-48" value="&lt;span&gt;Calendrier&amp;nbsp;&lt;/span&gt;" style="whiteSpace=wrap;html=1;rounded=1;shadow=1;comic=0;labelBackgroundColor=none;strokeWidth=2;fontFamily=Verdana;fontSize=12;align=center;arcSize=50;" parent="1" vertex="1">
          <mxGeometry x="1420" y="620" width="120" height="40" as="geometry" />
        </mxCell>
        <mxCell id="tiPBGG0AlIu76j9yVoQb-49" style="edgeStyle=orthogonalEdgeStyle;rounded=0;orthogonalLoop=1;jettySize=auto;html=1;entryX=1.001;entryY=0.619;entryDx=0;entryDy=0;entryPerimeter=0;" parent="1" source="IkNynAGvLjHpo-lVen7Y-46" target="tiPBGG0AlIu76j9yVoQb-48" edge="1">
          <mxGeometry relative="1" as="geometry" />
        </mxCell>
        <mxCell id="tiPBGG0AlIu76j9yVoQb-50" value="&lt;span&gt;Workout w friends&lt;/span&gt;" style="whiteSpace=wrap;html=1;rounded=1;shadow=1;comic=0;labelBackgroundColor=none;strokeWidth=2;fontFamily=Verdana;fontSize=12;align=center;arcSize=50;" parent="1" vertex="1">
          <mxGeometry x="1370" y="700" width="120" height="40" as="geometry" />
        </mxCell>
        <mxCell id="tiPBGG0AlIu76j9yVoQb-56" style="edgeStyle=orthogonalEdgeStyle;rounded=0;orthogonalLoop=1;jettySize=auto;html=1;" parent="1" source="tiPBGG0AlIu76j9yVoQb-55" target="IkNynAGvLjHpo-lVen7Y-46" edge="1">
          <mxGeometry relative="1" as="geometry" />
        </mxCell>
        <mxCell id="tiPBGG0AlIu76j9yVoQb-55" value="&lt;span&gt;Feed&lt;/span&gt;" style="whiteSpace=wrap;html=1;rounded=1;shadow=1;comic=0;labelBackgroundColor=none;strokeWidth=2;fontFamily=Verdana;fontSize=12;align=center;arcSize=50;" parent="1" vertex="1">
          <mxGeometry x="1680" y="530" width="80" height="30" as="geometry" />
        </mxCell>
        <mxCell id="tiPBGG0AlIu76j9yVoQb-57" value="Ã©vÃ¨nements communautaire" style="whiteSpace=wrap;html=1;rounded=1;shadow=1;comic=0;labelBackgroundColor=none;strokeWidth=2;fontFamily=Verdana;fontSize=12;align=center;arcSize=50;fillColor=#f5f5f5;fontColor=#333333;strokeColor=#666666;" parent="1" vertex="1">
          <mxGeometry x="1530" y="760" width="130" height="50" as="geometry" />
        </mxCell>
        <mxCell id="tiPBGG0AlIu76j9yVoQb-59" value="Sportives" style="whiteSpace=wrap;html=1;rounded=1;shadow=1;comic=0;labelBackgroundColor=none;strokeWidth=2;fontFamily=Verdana;fontSize=12;align=center;arcSize=50;fillColor=#6d8764;strokeColor=#3A5431;fontColor=#ffffff;" parent="1" vertex="1">
          <mxGeometry x="1220" y="-30" width="100" height="20" as="geometry" />
        </mxCell>
        <mxCell id="tiPBGG0AlIu76j9yVoQb-62" value="Ultra :&amp;nbsp;&lt;div&gt;MVP : vert&lt;/div&gt;&lt;div&gt;Le reste on verra&lt;/div&gt;" style="text;html=1;align=center;verticalAlign=middle;resizable=0;points=[];autosize=1;strokeColor=none;fillColor=none;" parent="1" vertex="1">
          <mxGeometry x="1300" y="-115" width="110" height="60" as="geometry" />
        </mxCell>
        <mxCell id="er4v6Koj0GB3_3TuaJ3j-1" value="Basic Info (height / weight / target)" style="whiteSpace=wrap;html=1;rounded=1;shadow=1;comic=0;labelBackgroundColor=none;strokeWidth=2;fontFamily=Verdana;fontSize=12;align=center;arcSize=50;fillColor=#6d8764;strokeColor=#3A5431;fontColor=#ffffff;" parent="1" vertex="1">
          <mxGeometry x="1615" y="290" width="130" height="50" as="geometry" />
        </mxCell>
      </root>
    </mxGraphModel>
  </diagram>
  <diagram id="pqmp7wNs9WEEUdnLdhrh" name="MVP : Class Diagram">
    <mxGraphModel dx="2357" dy="1135" grid="1" gridSize="10" guides="1" tooltips="1" connect="1" arrows="1" fold="1" page="1" pageScale="1" pageWidth="827" pageHeight="1169" math="0" shadow="0">
      <root>
        <mxCell id="0" />
        <mxCell id="1" parent="0" />
        <mxCell id="RD4nGO0Y6Lllq7IafBZe-10" value="" style="swimlane;startSize=0;fillColor=#60a917;strokeColor=#2D7600;fontColor=#ffffff;" parent="1" vertex="1">
          <mxGeometry x="-380" y="130" width="310" height="380" as="geometry" />
        </mxCell>
        <mxCell id="RD4nGO0Y6Lllq7IafBZe-11" value="ULTRA : Food" style="text;html=1;align=center;verticalAlign=middle;resizable=1;points=[];autosize=1;strokeColor=#2D7600;fillColor=#60a917;movable=1;rotatable=1;deletable=1;editable=1;locked=0;connectable=1;fontColor=#ffffff;" parent="RD4nGO0Y6Lllq7IafBZe-10" vertex="1">
          <mxGeometry x="20" width="100" height="30" as="geometry" />
        </mxCell>
        <mxCell id="RD4nGO0Y6Lllq7IafBZe-1" value="Recipes" style="swimlane;fontStyle=0;align=center;verticalAlign=top;childLayout=stackLayout;horizontal=1;startSize=26;horizontalStack=0;resizeParent=1;resizeLast=0;collapsible=1;marginBottom=0;rounded=0;shadow=0;strokeWidth=1;" parent="RD4nGO0Y6Lllq7IafBZe-10" vertex="1">
          <mxGeometry x="10" y="40" width="120" height="160" as="geometry">
            <mxRectangle x="550" y="140" width="160" height="26" as="alternateBounds" />
          </mxGeometry>
        </mxCell>
        <mxCell id="RD4nGO0Y6Lllq7IafBZe-2" value="IDÂ  Â  Â  IDString" style="text;align=left;verticalAlign=top;spacingLeft=4;spacingRight=4;overflow=hidden;rotatable=0;points=[[0,0.5],[1,0.5]];portConstraint=eastwest;" parent="RD4nGO0Y6Lllq7IafBZe-1" vertex="1">
          <mxGeometry y="26" width="120" height="26" as="geometry" />
        </mxCell>
        <mxCell id="RD4nGO0Y6Lllq7IafBZe-3" value="Macro Obj" style="text;align=left;verticalAlign=top;spacingLeft=4;spacingRight=4;overflow=hidden;rotatable=0;points=[[0,0.5],[1,0.5]];portConstraint=eastwest;rounded=0;shadow=0;html=0;" parent="RD4nGO0Y6Lllq7IafBZe-1" vertex="1">
          <mxGeometry y="52" width="120" height="26" as="geometry" />
        </mxCell>
        <mxCell id="RD4nGO0Y6Lllq7IafBZe-4" value="CaloriesÂ Â Â Â unint" style="text;align=left;verticalAlign=top;spacingLeft=4;spacingRight=4;overflow=hidden;rotatable=0;points=[[0,0.5],[1,0.5]];portConstraint=eastwest;rounded=0;shadow=0;html=0;" parent="RD4nGO0Y6Lllq7IafBZe-1" vertex="1">
          <mxGeometry y="78" width="120" height="26" as="geometry" />
        </mxCell>
        <mxCell id="RD4nGO0Y6Lllq7IafBZe-5" value="Name String" style="text;align=left;verticalAlign=top;spacingLeft=4;spacingRight=4;overflow=hidden;rotatable=0;points=[[0,0.5],[1,0.5]];portConstraint=eastwest;rounded=0;shadow=0;html=0;" parent="RD4nGO0Y6Lllq7IafBZe-1" vertex="1">
          <mxGeometry y="104" width="120" height="26" as="geometry" />
        </mxCell>
        <mxCell id="RD4nGO0Y6Lllq7IafBZe-6" value="Description" style="text;align=left;verticalAlign=top;spacingLeft=4;spacingRight=4;overflow=hidden;rotatable=0;points=[[0,0.5],[1,0.5]];portConstraint=eastwest;rounded=0;shadow=0;html=0;" parent="RD4nGO0Y6Lllq7IafBZe-1" vertex="1">
          <mxGeometry y="130" width="120" height="26" as="geometry" />
        </mxCell>
        <mxCell id="ob3UzCZncNzJALccmRnH-23" value="Macro Obj" style="swimlane;fontStyle=0;align=center;verticalAlign=top;childLayout=stackLayout;horizontal=1;startSize=26;horizontalStack=0;resizeParent=1;resizeLast=0;collapsible=1;marginBottom=0;rounded=0;shadow=0;strokeWidth=1;" parent="RD4nGO0Y6Lllq7IafBZe-10" vertex="1">
          <mxGeometry x="170" y="40" width="120" height="182" as="geometry">
            <mxRectangle x="550" y="140" width="160" height="26" as="alternateBounds" />
          </mxGeometry>
        </mxCell>
        <mxCell id="ob3UzCZncNzJALccmRnH-24" value="IDÂ  Â  Â  RecipeID" style="text;align=left;verticalAlign=top;spacingLeft=4;spacingRight=4;overflow=hidden;rotatable=0;points=[[0,0.5],[1,0.5]];portConstraint=eastwest;" parent="ob3UzCZncNzJALccmRnH-23" vertex="1">
          <mxGeometry y="26" width="120" height="26" as="geometry" />
        </mxCell>
        <mxCell id="ob3UzCZncNzJALccmRnH-27" value="Name String" style="text;align=left;verticalAlign=top;spacingLeft=4;spacingRight=4;overflow=hidden;rotatable=0;points=[[0,0.5],[1,0.5]];portConstraint=eastwest;rounded=0;shadow=0;html=0;" parent="ob3UzCZncNzJALccmRnH-23" vertex="1">
          <mxGeometry y="52" width="120" height="26" as="geometry" />
        </mxCell>
        <mxCell id="ob3UzCZncNzJALccmRnH-25" value="CarbohydrateÂ  Â unint" style="text;align=left;verticalAlign=top;spacingLeft=4;spacingRight=4;overflow=hidden;rotatable=0;points=[[0,0.5],[1,0.5]];portConstraint=eastwest;rounded=0;shadow=0;html=0;" parent="ob3UzCZncNzJALccmRnH-23" vertex="1">
          <mxGeometry y="78" width="120" height="26" as="geometry" />
        </mxCell>
        <mxCell id="ob3UzCZncNzJALccmRnH-32" value="ProteinÂ Â Â Â unint" style="text;align=left;verticalAlign=top;spacingLeft=4;spacingRight=4;overflow=hidden;rotatable=0;points=[[0,0.5],[1,0.5]];portConstraint=eastwest;rounded=0;shadow=0;html=0;" parent="ob3UzCZncNzJALccmRnH-23" vertex="1">
          <mxGeometry y="104" width="120" height="26" as="geometry" />
        </mxCell>
        <mxCell id="ob3UzCZncNzJALccmRnH-33" value="Lipid Â Â Â Â uint" style="text;align=left;verticalAlign=top;spacingLeft=4;spacingRight=4;overflow=hidden;rotatable=0;points=[[0,0.5],[1,0.5]];portConstraint=eastwest;rounded=0;shadow=0;html=0;" parent="ob3UzCZncNzJALccmRnH-23" vertex="1">
          <mxGeometry y="130" width="120" height="26" as="geometry" />
        </mxCell>
        <mxCell id="ob3UzCZncNzJALccmRnH-26" value="CaloriesÂ Â Â Â unint" style="text;align=left;verticalAlign=top;spacingLeft=4;spacingRight=4;overflow=hidden;rotatable=0;points=[[0,0.5],[1,0.5]];portConstraint=eastwest;rounded=0;shadow=0;html=0;" parent="ob3UzCZncNzJALccmRnH-23" vertex="1">
          <mxGeometry y="156" width="120" height="26" as="geometry" />
        </mxCell>
        <mxCell id="hVOENNKq00UAsmFtHP9H-1" style="edgeStyle=orthogonalEdgeStyle;rounded=0;orthogonalLoop=1;jettySize=auto;html=1;entryX=0.025;entryY=0.09;entryDx=0;entryDy=0;entryPerimeter=0;" parent="RD4nGO0Y6Lllq7IafBZe-10" source="RD4nGO0Y6Lllq7IafBZe-3" target="ob3UzCZncNzJALccmRnH-23" edge="1">
          <mxGeometry relative="1" as="geometry" />
        </mxCell>
        <mxCell id="hVOENNKq00UAsmFtHP9H-49" value="SQL : Food" style="shape=table;startSize=30;container=1;collapsible=1;childLayout=tableLayout;fixedRows=1;rowLines=0;fontStyle=1;align=center;resizeLast=1;html=1;fillColor=#008a00;fontColor=#ffffff;strokeColor=#005700;" parent="RD4nGO0Y6Lllq7IafBZe-10" vertex="1">
          <mxGeometry y="230" width="180" height="150" as="geometry" />
        </mxCell>
        <mxCell id="hVOENNKq00UAsmFtHP9H-50" value="" style="shape=tableRow;horizontal=0;startSize=0;swimlaneHead=0;swimlaneBody=0;fillColor=none;collapsible=0;dropTarget=0;points=[[0,0.5],[1,0.5]];portConstraint=eastwest;top=0;left=0;right=0;bottom=1;" parent="hVOENNKq00UAsmFtHP9H-49" vertex="1">
          <mxGeometry y="30" width="180" height="30" as="geometry" />
        </mxCell>
        <mxCell id="hVOENNKq00UAsmFtHP9H-51" value="PK" style="shape=partialRectangle;connectable=0;fillColor=none;top=0;left=0;bottom=0;right=0;fontStyle=1;overflow=hidden;whiteSpace=wrap;html=1;" parent="hVOENNKq00UAsmFtHP9H-50" vertex="1">
          <mxGeometry width="30" height="30" as="geometry">
            <mxRectangle width="30" height="30" as="alternateBounds" />
          </mxGeometry>
        </mxCell>
        <mxCell id="hVOENNKq00UAsmFtHP9H-52" value="UniqueID" style="shape=partialRectangle;connectable=0;fillColor=none;top=0;left=0;bottom=0;right=0;align=left;spacingLeft=6;fontStyle=5;overflow=hidden;whiteSpace=wrap;html=1;" parent="hVOENNKq00UAsmFtHP9H-50" vertex="1">
          <mxGeometry x="30" width="150" height="30" as="geometry">
            <mxRectangle width="150" height="30" as="alternateBounds" />
          </mxGeometry>
        </mxCell>
        <mxCell id="hVOENNKq00UAsmFtHP9H-53" value="" style="shape=tableRow;horizontal=0;startSize=0;swimlaneHead=0;swimlaneBody=0;fillColor=none;collapsible=0;dropTarget=0;points=[[0,0.5],[1,0.5]];portConstraint=eastwest;top=0;left=0;right=0;bottom=0;" parent="hVOENNKq00UAsmFtHP9H-49" vertex="1">
          <mxGeometry y="60" width="180" height="30" as="geometry" />
        </mxCell>
        <mxCell id="hVOENNKq00UAsmFtHP9H-54" value="" style="shape=partialRectangle;connectable=0;fillColor=none;top=0;left=0;bottom=0;right=0;editable=1;overflow=hidden;whiteSpace=wrap;html=1;" parent="hVOENNKq00UAsmFtHP9H-53" vertex="1">
          <mxGeometry width="30" height="30" as="geometry">
            <mxRectangle width="30" height="30" as="alternateBounds" />
          </mxGeometry>
        </mxCell>
        <mxCell id="hVOENNKq00UAsmFtHP9H-55" value="ID" style="shape=partialRectangle;connectable=0;fillColor=none;top=0;left=0;bottom=0;right=0;align=left;spacingLeft=6;overflow=hidden;whiteSpace=wrap;html=1;" parent="hVOENNKq00UAsmFtHP9H-53" vertex="1">
          <mxGeometry x="30" width="150" height="30" as="geometry">
            <mxRectangle width="150" height="30" as="alternateBounds" />
          </mxGeometry>
        </mxCell>
        <mxCell id="hVOENNKq00UAsmFtHP9H-56" value="" style="shape=tableRow;horizontal=0;startSize=0;swimlaneHead=0;swimlaneBody=0;fillColor=none;collapsible=0;dropTarget=0;points=[[0,0.5],[1,0.5]];portConstraint=eastwest;top=0;left=0;right=0;bottom=0;" parent="hVOENNKq00UAsmFtHP9H-49" vertex="1">
          <mxGeometry y="90" width="180" height="30" as="geometry" />
        </mxCell>
        <mxCell id="hVOENNKq00UAsmFtHP9H-57" value="" style="shape=partialRectangle;connectable=0;fillColor=none;top=0;left=0;bottom=0;right=0;editable=1;overflow=hidden;whiteSpace=wrap;html=1;" parent="hVOENNKq00UAsmFtHP9H-56" vertex="1">
          <mxGeometry width="30" height="30" as="geometry">
            <mxRectangle width="30" height="30" as="alternateBounds" />
          </mxGeometry>
        </mxCell>
        <mxCell id="hVOENNKq00UAsmFtHP9H-58" value="Name" style="shape=partialRectangle;connectable=0;fillColor=none;top=0;left=0;bottom=0;right=0;align=left;spacingLeft=6;overflow=hidden;whiteSpace=wrap;html=1;" parent="hVOENNKq00UAsmFtHP9H-56" vertex="1">
          <mxGeometry x="30" width="150" height="30" as="geometry">
            <mxRectangle width="150" height="30" as="alternateBounds" />
          </mxGeometry>
        </mxCell>
        <mxCell id="hVOENNKq00UAsmFtHP9H-59" value="" style="shape=tableRow;horizontal=0;startSize=0;swimlaneHead=0;swimlaneBody=0;fillColor=none;collapsible=0;dropTarget=0;points=[[0,0.5],[1,0.5]];portConstraint=eastwest;top=0;left=0;right=0;bottom=0;" parent="hVOENNKq00UAsmFtHP9H-49" vertex="1">
          <mxGeometry y="120" width="180" height="30" as="geometry" />
        </mxCell>
        <mxCell id="hVOENNKq00UAsmFtHP9H-60" value="" style="shape=partialRectangle;connectable=0;fillColor=none;top=0;left=0;bottom=0;right=0;editable=1;overflow=hidden;whiteSpace=wrap;html=1;" parent="hVOENNKq00UAsmFtHP9H-59" vertex="1">
          <mxGeometry width="30" height="30" as="geometry">
            <mxRectangle width="30" height="30" as="alternateBounds" />
          </mxGeometry>
        </mxCell>
        <mxCell id="hVOENNKq00UAsmFtHP9H-61" value="Etc..." style="shape=partialRectangle;connectable=0;fillColor=none;top=0;left=0;bottom=0;right=0;align=left;spacingLeft=6;overflow=hidden;whiteSpace=wrap;html=1;" parent="hVOENNKq00UAsmFtHP9H-59" vertex="1">
          <mxGeometry x="30" width="150" height="30" as="geometry">
            <mxRectangle width="150" height="30" as="alternateBounds" />
          </mxGeometry>
        </mxCell>
        <mxCell id="ob3UzCZncNzJALccmRnH-1" value="" style="swimlane;startSize=0;fillColor=#d80073;fontColor=#ffffff;strokeColor=#A50040;" parent="1" vertex="1">
          <mxGeometry x="-820" y="130" width="380" height="460" as="geometry" />
        </mxCell>
        <mxCell id="ob3UzCZncNzJALccmRnH-2" value="ULTRA : Profile" style="text;html=1;align=center;verticalAlign=middle;resizable=1;points=[];autosize=1;strokeColor=#A50040;fillColor=#d80073;fontColor=#ffffff;movable=1;rotatable=1;deletable=1;editable=1;locked=0;connectable=1;" parent="ob3UzCZncNzJALccmRnH-1" vertex="1">
          <mxGeometry x="120" width="110" height="30" as="geometry" />
        </mxCell>
        <mxCell id="ob3UzCZncNzJALccmRnH-3" value="Users" style="swimlane;fontStyle=0;align=center;verticalAlign=top;childLayout=stackLayout;horizontal=1;startSize=26;horizontalStack=0;resizeParent=1;resizeLast=0;collapsible=1;marginBottom=0;rounded=0;shadow=0;strokeWidth=1;" parent="ob3UzCZncNzJALccmRnH-1" vertex="1">
          <mxGeometry y="30" width="125" height="190" as="geometry">
            <mxRectangle x="550" y="140" width="160" height="26" as="alternateBounds" />
          </mxGeometry>
        </mxCell>
        <mxCell id="ob3UzCZncNzJALccmRnH-4" value="User ID" style="text;align=left;verticalAlign=top;spacingLeft=4;spacingRight=4;overflow=hidden;rotatable=0;points=[[0,0.5],[1,0.5]];portConstraint=eastwest;" parent="ob3UzCZncNzJALccmRnH-3" vertex="1">
          <mxGeometry y="26" width="125" height="26" as="geometry" />
        </mxCell>
        <mxCell id="ob3UzCZncNzJALccmRnH-5" value="Workouts IDs" style="text;align=left;verticalAlign=top;spacingLeft=4;spacingRight=4;overflow=hidden;rotatable=0;points=[[0,0.5],[1,0.5]];portConstraint=eastwest;rounded=0;shadow=0;html=0;" parent="ob3UzCZncNzJALccmRnH-3" vertex="1">
          <mxGeometry y="52" width="125" height="26" as="geometry" />
        </mxCell>
        <mxCell id="ob3UzCZncNzJALccmRnH-6" value="Food IDs" style="text;align=left;verticalAlign=top;spacingLeft=4;spacingRight=4;overflow=hidden;rotatable=0;points=[[0,0.5],[1,0.5]];portConstraint=eastwest;rounded=0;shadow=0;html=0;" parent="ob3UzCZncNzJALccmRnH-3" vertex="1">
          <mxGeometry y="78" width="125" height="26" as="geometry" />
        </mxCell>
        <mxCell id="q9GLVG16TLMFandRXiOp-4" value="Performances IDs" style="text;align=left;verticalAlign=top;spacingLeft=4;spacingRight=4;overflow=hidden;rotatable=0;points=[[0,0.5],[1,0.5]];portConstraint=eastwest;rounded=0;shadow=0;html=0;" parent="ob3UzCZncNzJALccmRnH-3" vertex="1">
          <mxGeometry y="104" width="125" height="26" as="geometry" />
        </mxCell>
        <mxCell id="q9GLVG16TLMFandRXiOp-5" value="Health Info" style="text;align=left;verticalAlign=top;spacingLeft=4;spacingRight=4;overflow=hidden;rotatable=0;points=[[0,0.5],[1,0.5]];portConstraint=eastwest;rounded=0;shadow=0;html=0;" parent="ob3UzCZncNzJALccmRnH-3" vertex="1">
          <mxGeometry y="130" width="125" height="26" as="geometry" />
        </mxCell>
        <mxCell id="q9GLVG16TLMFandRXiOp-6" value="Health Info" style="swimlane;fontStyle=0;align=center;verticalAlign=top;childLayout=stackLayout;horizontal=1;startSize=26;horizontalStack=0;resizeParent=1;resizeLast=0;collapsible=1;marginBottom=0;rounded=0;shadow=0;strokeWidth=1;" parent="ob3UzCZncNzJALccmRnH-1" vertex="1">
          <mxGeometry x="230" y="50" width="125" height="190" as="geometry">
            <mxRectangle x="550" y="140" width="160" height="26" as="alternateBounds" />
          </mxGeometry>
        </mxCell>
        <mxCell id="q9GLVG16TLMFandRXiOp-7" value="User ID" style="text;align=left;verticalAlign=top;spacingLeft=4;spacingRight=4;overflow=hidden;rotatable=0;points=[[0,0.5],[1,0.5]];portConstraint=eastwest;" parent="q9GLVG16TLMFandRXiOp-6" vertex="1">
          <mxGeometry y="26" width="125" height="26" as="geometry" />
        </mxCell>
        <mxCell id="q9GLVG16TLMFandRXiOp-8" value="Height" style="text;align=left;verticalAlign=top;spacingLeft=4;spacingRight=4;overflow=hidden;rotatable=0;points=[[0,0.5],[1,0.5]];portConstraint=eastwest;rounded=0;shadow=0;html=0;" parent="q9GLVG16TLMFandRXiOp-6" vertex="1">
          <mxGeometry y="52" width="125" height="26" as="geometry" />
        </mxCell>
        <mxCell id="q9GLVG16TLMFandRXiOp-9" value="Weight" style="text;align=left;verticalAlign=top;spacingLeft=4;spacingRight=4;overflow=hidden;rotatable=0;points=[[0,0.5],[1,0.5]];portConstraint=eastwest;rounded=0;shadow=0;html=0;" parent="q9GLVG16TLMFandRXiOp-6" vertex="1">
          <mxGeometry y="78" width="125" height="26" as="geometry" />
        </mxCell>
        <mxCell id="q9GLVG16TLMFandRXiOp-10" value="Macro Target" style="text;align=left;verticalAlign=top;spacingLeft=4;spacingRight=4;overflow=hidden;rotatable=0;points=[[0,0.5],[1,0.5]];portConstraint=eastwest;rounded=0;shadow=0;html=0;" parent="q9GLVG16TLMFandRXiOp-6" vertex="1">
          <mxGeometry y="104" width="125" height="26" as="geometry" />
        </mxCell>
        <mxCell id="q9GLVG16TLMFandRXiOp-11" value="Age uint" style="text;align=left;verticalAlign=top;spacingLeft=4;spacingRight=4;overflow=hidden;rotatable=0;points=[[0,0.5],[1,0.5]];portConstraint=eastwest;rounded=0;shadow=0;html=0;" parent="q9GLVG16TLMFandRXiOp-6" vertex="1">
          <mxGeometry y="130" width="125" height="26" as="geometry" />
        </mxCell>
        <mxCell id="q9GLVG16TLMFandRXiOp-12" style="edgeStyle=orthogonalEdgeStyle;rounded=0;orthogonalLoop=1;jettySize=auto;html=1;" parent="ob3UzCZncNzJALccmRnH-1" source="q9GLVG16TLMFandRXiOp-5" target="q9GLVG16TLMFandRXiOp-6" edge="1">
          <mxGeometry relative="1" as="geometry" />
        </mxCell>
        <mxCell id="q9GLVG16TLMFandRXiOp-23" style="edgeStyle=orthogonalEdgeStyle;rounded=0;orthogonalLoop=1;jettySize=auto;html=1;" parent="ob3UzCZncNzJALccmRnH-1" source="q9GLVG16TLMFandRXiOp-13" target="q9GLVG16TLMFandRXiOp-10" edge="1">
          <mxGeometry relative="1" as="geometry">
            <Array as="points">
              <mxPoint x="380" y="365" />
              <mxPoint x="380" y="225" />
              <mxPoint x="400" y="225" />
              <mxPoint x="400" y="167" />
            </Array>
          </mxGeometry>
        </mxCell>
        <mxCell id="q9GLVG16TLMFandRXiOp-13" value="Macro Target" style="swimlane;fontStyle=0;align=center;verticalAlign=top;childLayout=stackLayout;horizontal=1;startSize=26;horizontalStack=0;resizeParent=1;resizeLast=0;collapsible=1;marginBottom=0;rounded=0;shadow=0;strokeWidth=1;" parent="ob3UzCZncNzJALccmRnH-1" vertex="1">
          <mxGeometry x="230" y="260" width="125" height="190" as="geometry">
            <mxRectangle x="550" y="140" width="160" height="26" as="alternateBounds" />
          </mxGeometry>
        </mxCell>
        <mxCell id="q9GLVG16TLMFandRXiOp-14" value="User ID" style="text;align=left;verticalAlign=top;spacingLeft=4;spacingRight=4;overflow=hidden;rotatable=0;points=[[0,0.5],[1,0.5]];portConstraint=eastwest;" parent="q9GLVG16TLMFandRXiOp-13" vertex="1">
          <mxGeometry y="26" width="125" height="26" as="geometry" />
        </mxCell>
        <mxCell id="q9GLVG16TLMFandRXiOp-19" value="CarbohydrateÂ  Â unint" style="text;align=left;verticalAlign=top;spacingLeft=4;spacingRight=4;overflow=hidden;rotatable=0;points=[[0,0.5],[1,0.5]];portConstraint=eastwest;rounded=0;shadow=0;html=0;" parent="q9GLVG16TLMFandRXiOp-13" vertex="1">
          <mxGeometry y="52" width="125" height="26" as="geometry" />
        </mxCell>
        <mxCell id="q9GLVG16TLMFandRXiOp-20" value="ProteinÂ Â Â Â unint" style="text;align=left;verticalAlign=top;spacingLeft=4;spacingRight=4;overflow=hidden;rotatable=0;points=[[0,0.5],[1,0.5]];portConstraint=eastwest;rounded=0;shadow=0;html=0;" parent="q9GLVG16TLMFandRXiOp-13" vertex="1">
          <mxGeometry y="78" width="125" height="26" as="geometry" />
        </mxCell>
        <mxCell id="q9GLVG16TLMFandRXiOp-22" value="CaloriesÂ Â Â Â unint" style="text;align=left;verticalAlign=top;spacingLeft=4;spacingRight=4;overflow=hidden;rotatable=0;points=[[0,0.5],[1,0.5]];portConstraint=eastwest;rounded=0;shadow=0;html=0;" parent="q9GLVG16TLMFandRXiOp-13" vertex="1">
          <mxGeometry y="104" width="125" height="26" as="geometry" />
        </mxCell>
        <mxCell id="q9GLVG16TLMFandRXiOp-21" value="Lipid Â Â Â Â uint" style="text;align=left;verticalAlign=top;spacingLeft=4;spacingRight=4;overflow=hidden;rotatable=0;points=[[0,0.5],[1,0.5]];portConstraint=eastwest;rounded=0;shadow=0;html=0;" parent="q9GLVG16TLMFandRXiOp-13" vertex="1">
          <mxGeometry y="130" width="125" height="26" as="geometry" />
        </mxCell>
        <mxCell id="ob3UzCZncNzJALccmRnH-35" value="&lt;span style=&quot;font-size: 9px; text-align: right;&quot;&gt;In the DB, macro are stored with recipes, but wrapped after in an object&lt;/span&gt;" style="rounded=0;whiteSpace=wrap;html=1;" parent="1" vertex="1">
          <mxGeometry x="-260" y="20" width="120" height="60" as="geometry" />
        </mxCell>
        <mxCell id="ob3UzCZncNzJALccmRnH-38" value="" style="endArrow=none;dashed=1;html=1;dashPattern=1 3;strokeWidth=2;rounded=0;entryX=0.474;entryY=0.955;entryDx=0;entryDy=0;entryPerimeter=0;exitX=0.064;exitY=0.018;exitDx=0;exitDy=0;exitPerimeter=0;" parent="1" source="ob3UzCZncNzJALccmRnH-23" target="ob3UzCZncNzJALccmRnH-35" edge="1">
          <mxGeometry width="50" height="50" relative="1" as="geometry">
            <mxPoint x="-120" y="260" as="sourcePoint" />
            <mxPoint x="-70" y="210" as="targetPoint" />
          </mxGeometry>
        </mxCell>
        <mxCell id="ob3UzCZncNzJALccmRnH-12" value="" style="swimlane;startSize=0;fillColor=#1ba1e2;strokeColor=#006EAF;fontColor=#ffffff;" parent="1" vertex="1">
          <mxGeometry x="-760" y="659" width="470" height="510" as="geometry" />
        </mxCell>
        <mxCell id="ob3UzCZncNzJALccmRnH-13" value="ULTRA : Sport" style="text;html=1;align=center;verticalAlign=middle;resizable=1;points=[];autosize=1;strokeColor=#006EAF;fillColor=#1ba1e2;fontColor=#ffffff;movable=1;rotatable=1;deletable=1;editable=1;locked=0;connectable=1;" parent="ob3UzCZncNzJALccmRnH-12" vertex="1">
          <mxGeometry x="129" width="100" height="30" as="geometry" />
        </mxCell>
        <mxCell id="ob3UzCZncNzJALccmRnH-14" value="Workout Plan" style="swimlane;fontStyle=0;align=center;verticalAlign=top;childLayout=stackLayout;horizontal=1;startSize=26;horizontalStack=0;resizeParent=1;resizeLast=0;collapsible=1;marginBottom=0;rounded=0;shadow=0;strokeWidth=1;" parent="ob3UzCZncNzJALccmRnH-12" vertex="1">
          <mxGeometry x="10" y="36" width="161" height="130" as="geometry">
            <mxRectangle x="550" y="140" width="160" height="26" as="alternateBounds" />
          </mxGeometry>
        </mxCell>
        <mxCell id="ob3UzCZncNzJALccmRnH-15" value="ID Â Â Â Â IDstring" style="text;align=left;verticalAlign=top;spacingLeft=4;spacingRight=4;overflow=hidden;rotatable=0;points=[[0,0.5],[1,0.5]];portConstraint=eastwest;" parent="ob3UzCZncNzJALccmRnH-14" vertex="1">
          <mxGeometry y="26" width="161" height="26" as="geometry" />
        </mxCell>
        <mxCell id="ob3UzCZncNzJALccmRnH-16" value="Name Â Â Â Â String" style="text;align=left;verticalAlign=top;spacingLeft=4;spacingRight=4;overflow=hidden;rotatable=0;points=[[0,0.5],[1,0.5]];portConstraint=eastwest;rounded=0;shadow=0;html=0;" parent="ob3UzCZncNzJALccmRnH-14" vertex="1">
          <mxGeometry y="52" width="161" height="26" as="geometry" />
        </mxCell>
        <mxCell id="ob3UzCZncNzJALccmRnH-17" value="DescriptionÂ Â Â Â Â String" style="text;align=left;verticalAlign=top;spacingLeft=4;spacingRight=4;overflow=hidden;rotatable=0;points=[[0,0.5],[1,0.5]];portConstraint=eastwest;rounded=0;shadow=0;html=0;" parent="ob3UzCZncNzJALccmRnH-14" vertex="1">
          <mxGeometry y="78" width="161" height="26" as="geometry" />
        </mxCell>
        <mxCell id="ob3UzCZncNzJALccmRnH-18" value="ExercisesÂ Â Â Â List of OBJ" style="text;align=left;verticalAlign=top;spacingLeft=4;spacingRight=4;overflow=hidden;rotatable=0;points=[[0,0.5],[1,0.5]];portConstraint=eastwest;rounded=0;shadow=0;html=0;" parent="ob3UzCZncNzJALccmRnH-14" vertex="1">
          <mxGeometry y="104" width="161" height="26" as="geometry" />
        </mxCell>
        <mxCell id="hVOENNKq00UAsmFtHP9H-2" value="Exercise Plan (Read Only)" style="swimlane;fontStyle=0;align=center;verticalAlign=top;childLayout=stackLayout;horizontal=1;startSize=26;horizontalStack=0;resizeParent=1;resizeLast=0;collapsible=1;marginBottom=0;rounded=0;shadow=0;strokeWidth=1;" parent="ob3UzCZncNzJALccmRnH-12" vertex="1">
          <mxGeometry x="290" y="10" width="161" height="210" as="geometry">
            <mxRectangle x="550" y="140" width="160" height="26" as="alternateBounds" />
          </mxGeometry>
        </mxCell>
        <mxCell id="hVOENNKq00UAsmFtHP9H-3" value="ID Â Â Â Â IDstring" style="text;align=left;verticalAlign=top;spacingLeft=4;spacingRight=4;overflow=hidden;rotatable=0;points=[[0,0.5],[1,0.5]];portConstraint=eastwest;" parent="hVOENNKq00UAsmFtHP9H-2" vertex="1">
          <mxGeometry y="26" width="161" height="26" as="geometry" />
        </mxCell>
        <mxCell id="hVOENNKq00UAsmFtHP9H-4" value="Name Â Â Â Â String" style="text;align=left;verticalAlign=top;spacingLeft=4;spacingRight=4;overflow=hidden;rotatable=0;points=[[0,0.5],[1,0.5]];portConstraint=eastwest;rounded=0;shadow=0;html=0;" parent="hVOENNKq00UAsmFtHP9H-2" vertex="1">
          <mxGeometry y="52" width="161" height="26" as="geometry" />
        </mxCell>
        <mxCell id="hVOENNKq00UAsmFtHP9H-5" value="DescriptionÂ Â Â Â Â String" style="text;align=left;verticalAlign=top;spacingLeft=4;spacingRight=4;overflow=hidden;rotatable=0;points=[[0,0.5],[1,0.5]];portConstraint=eastwest;rounded=0;shadow=0;html=0;" parent="hVOENNKq00UAsmFtHP9H-2" vertex="1">
          <mxGeometry y="78" width="161" height="26" as="geometry" />
        </mxCell>
        <mxCell id="hVOENNKq00UAsmFtHP9H-6" value="SeriesÂ Â Â Â Â Â Â Â uint" style="text;align=left;verticalAlign=top;spacingLeft=4;spacingRight=4;overflow=hidden;rotatable=0;points=[[0,0.5],[1,0.5]];portConstraint=eastwest;rounded=0;shadow=0;html=0;" parent="hVOENNKq00UAsmFtHP9H-2" vertex="1">
          <mxGeometry y="104" width="161" height="26" as="geometry" />
        </mxCell>
        <mxCell id="hVOENNKq00UAsmFtHP9H-7" value="Repetitions Â Â Â Â uint" style="text;align=left;verticalAlign=top;spacingLeft=4;spacingRight=4;overflow=hidden;rotatable=0;points=[[0,0.5],[1,0.5]];portConstraint=eastwest;rounded=0;shadow=0;html=0;" parent="hVOENNKq00UAsmFtHP9H-2" vertex="1">
          <mxGeometry y="130" width="161" height="26" as="geometry" />
        </mxCell>
        <mxCell id="hVOENNKq00UAsmFtHP9H-17" value="Weight Â Â Â Â uint" style="text;align=left;verticalAlign=top;spacingLeft=4;spacingRight=4;overflow=hidden;rotatable=0;points=[[0,0.5],[1,0.5]];portConstraint=eastwest;rounded=0;shadow=0;html=0;" parent="hVOENNKq00UAsmFtHP9H-2" vertex="1">
          <mxGeometry y="156" width="161" height="26" as="geometry" />
        </mxCell>
        <mxCell id="hVOENNKq00UAsmFtHP9H-9" value="RestTime Â Â Â Â time.seconds" style="text;align=left;verticalAlign=top;spacingLeft=4;spacingRight=4;overflow=hidden;rotatable=0;points=[[0,0.5],[1,0.5]];portConstraint=eastwest;" parent="hVOENNKq00UAsmFtHP9H-2" vertex="1">
          <mxGeometry y="182" width="161" height="28" as="geometry" />
        </mxCell>
        <mxCell id="hVOENNKq00UAsmFtHP9H-11" style="edgeStyle=orthogonalEdgeStyle;rounded=0;orthogonalLoop=1;jettySize=auto;html=1;entryX=-0.001;entryY=0.038;entryDx=0;entryDy=0;entryPerimeter=0;" parent="ob3UzCZncNzJALccmRnH-12" source="ob3UzCZncNzJALccmRnH-18" target="hVOENNKq00UAsmFtHP9H-2" edge="1">
          <mxGeometry relative="1" as="geometry">
            <Array as="points">
              <mxPoint x="260" y="150" />
              <mxPoint x="260" y="17" />
            </Array>
          </mxGeometry>
        </mxCell>
        <mxCell id="hVOENNKq00UAsmFtHP9H-12" value="Workout Performance" style="swimlane;fontStyle=0;align=center;verticalAlign=top;childLayout=stackLayout;horizontal=1;startSize=26;horizontalStack=0;resizeParent=1;resizeLast=0;collapsible=1;marginBottom=0;rounded=0;shadow=0;strokeWidth=1;" parent="ob3UzCZncNzJALccmRnH-12" vertex="1">
          <mxGeometry x="10" y="250" width="160" height="200" as="geometry">
            <mxRectangle x="550" y="140" width="160" height="26" as="alternateBounds" />
          </mxGeometry>
        </mxCell>
        <mxCell id="hVOENNKq00UAsmFtHP9H-13" value="ID Â Â Â Â IDstring" style="text;align=left;verticalAlign=top;spacingLeft=4;spacingRight=4;overflow=hidden;rotatable=0;points=[[0,0.5],[1,0.5]];portConstraint=eastwest;" parent="hVOENNKq00UAsmFtHP9H-12" vertex="1">
          <mxGeometry y="26" width="160" height="26" as="geometry" />
        </mxCell>
        <mxCell id="hVOENNKq00UAsmFtHP9H-33" value="PlanIDÂ Â Â Â Â WorkoutPlanID" style="text;align=left;verticalAlign=top;spacingLeft=4;spacingRight=4;overflow=hidden;rotatable=0;points=[[0,0.5],[1,0.5]];portConstraint=eastwest;" parent="hVOENNKq00UAsmFtHP9H-12" vertex="1">
          <mxGeometry y="52" width="160" height="26" as="geometry" />
        </mxCell>
        <mxCell id="hVOENNKq00UAsmFtHP9H-14" value="DateÂ Â Â Â date.DateTime" style="text;align=left;verticalAlign=top;spacingLeft=4;spacingRight=4;overflow=hidden;rotatable=0;points=[[0,0.5],[1,0.5]];portConstraint=eastwest;rounded=0;shadow=0;html=0;" parent="hVOENNKq00UAsmFtHP9H-12" vertex="1">
          <mxGeometry y="78" width="160" height="26" as="geometry" />
        </mxCell>
        <mxCell id="hVOENNKq00UAsmFtHP9H-16" value="Exercises PerfÂ  Â List of OBJ" style="text;align=left;verticalAlign=top;spacingLeft=4;spacingRight=4;overflow=hidden;rotatable=0;points=[[0,0.5],[1,0.5]];portConstraint=eastwest;rounded=0;shadow=0;html=0;" parent="hVOENNKq00UAsmFtHP9H-12" vertex="1">
          <mxGeometry y="104" width="160" height="26" as="geometry" />
        </mxCell>
        <mxCell id="hVOENNKq00UAsmFtHP9H-29" value="Exercise Performance" style="swimlane;fontStyle=0;align=center;verticalAlign=top;childLayout=stackLayout;horizontal=1;startSize=26;horizontalStack=0;resizeParent=1;resizeLast=0;collapsible=1;marginBottom=0;rounded=0;shadow=0;strokeWidth=1;" parent="ob3UzCZncNzJALccmRnH-12" vertex="1">
          <mxGeometry x="290" y="280" width="161" height="200" as="geometry">
            <mxRectangle x="550" y="140" width="160" height="26" as="alternateBounds" />
          </mxGeometry>
        </mxCell>
        <mxCell id="hVOENNKq00UAsmFtHP9H-30" value="ID Â Â Â Â IDstring" style="text;align=left;verticalAlign=top;spacingLeft=4;spacingRight=4;overflow=hidden;rotatable=0;points=[[0,0.5],[1,0.5]];portConstraint=eastwest;" parent="hVOENNKq00UAsmFtHP9H-29" vertex="1">
          <mxGeometry y="26" width="161" height="26" as="geometry" />
        </mxCell>
        <mxCell id="hVOENNKq00UAsmFtHP9H-31" value="DateÂ Â Â Â date.DateTime" style="text;align=left;verticalAlign=top;spacingLeft=4;spacingRight=4;overflow=hidden;rotatable=0;points=[[0,0.5],[1,0.5]];portConstraint=eastwest;rounded=0;shadow=0;html=0;" parent="hVOENNKq00UAsmFtHP9H-29" vertex="1">
          <mxGeometry y="52" width="161" height="26" as="geometry" />
        </mxCell>
        <mxCell id="hVOENNKq00UAsmFtHP9H-32" value="Weight" style="text;align=left;verticalAlign=top;spacingLeft=4;spacingRight=4;overflow=hidden;rotatable=0;points=[[0,0.5],[1,0.5]];portConstraint=eastwest;rounded=0;shadow=0;html=0;" parent="hVOENNKq00UAsmFtHP9H-29" vertex="1">
          <mxGeometry y="78" width="161" height="26" as="geometry" />
        </mxCell>
        <mxCell id="q9GLVG16TLMFandRXiOp-1" value="Repetitions" style="text;align=left;verticalAlign=top;spacingLeft=4;spacingRight=4;overflow=hidden;rotatable=0;points=[[0,0.5],[1,0.5]];portConstraint=eastwest;rounded=0;shadow=0;html=0;" parent="hVOENNKq00UAsmFtHP9H-29" vertex="1">
          <mxGeometry y="104" width="161" height="26" as="geometry" />
        </mxCell>
        <mxCell id="q9GLVG16TLMFandRXiOp-2" value="RestTime Â Â Â Â time.seconds" style="text;align=left;verticalAlign=top;spacingLeft=4;spacingRight=4;overflow=hidden;rotatable=0;points=[[0,0.5],[1,0.5]];portConstraint=eastwest;" parent="hVOENNKq00UAsmFtHP9H-29" vertex="1">
          <mxGeometry y="130" width="161" height="28" as="geometry" />
        </mxCell>
        <mxCell id="hVOENNKq00UAsmFtHP9H-34" style="edgeStyle=orthogonalEdgeStyle;rounded=0;orthogonalLoop=1;jettySize=auto;html=1;entryX=0.553;entryY=0.992;entryDx=0;entryDy=0;entryPerimeter=0;" parent="ob3UzCZncNzJALccmRnH-12" source="hVOENNKq00UAsmFtHP9H-33" target="ob3UzCZncNzJALccmRnH-18" edge="1">
          <mxGeometry relative="1" as="geometry" />
        </mxCell>
        <mxCell id="hVOENNKq00UAsmFtHP9H-35" style="edgeStyle=orthogonalEdgeStyle;rounded=0;orthogonalLoop=1;jettySize=auto;html=1;" parent="ob3UzCZncNzJALccmRnH-12" source="hVOENNKq00UAsmFtHP9H-16" target="hVOENNKq00UAsmFtHP9H-30" edge="1">
          <mxGeometry relative="1" as="geometry" />
        </mxCell>
      </root>
    </mxGraphModel>
  </diagram>
</mxfile>
